<svg xmlns="http://www.w3.org/2000/svg" viewBox="0 0 140 40"><path d="M60.72 27.36c-.09 1.68-.49 2.85-1.18 3.52-.66.63-1.54.88-2.64.76-1.03-.12-1.82-.51-2.37-1.18-.67-.77-1.1-2.01-1.3-3.71-.05-.39-.09-1.59-.14-3.6-.07-2.47-.07-4.74 0-6.8.05-1.61.15-2.91.3-3.92.19-1.35.46-2.27.83-2.78.53-.74 1.35-1.21 2.48-1.41.98-.16 1.79-.06 2.41.3.57.3.97.83 1.2 1.58.09.33.15.7.18 1.11s.02.93 0 1.57-.04.98-.04 1.03c0 .21-.08.4-.24.55s-.35.24-.56.24-.4-.08-.55-.24-.23-.34-.23-.55c0-.25.01-.55.02-.92s.02-.67.02-.9-.01-.47-.04-.74-.06-.5-.11-.69c-.11-.33-.25-.56-.44-.69-.28-.14-.73-.16-1.34-.07-.69.13-1.18.38-1.48.76-.19.29-.36.98-.53 2.06-.13.98-.23 2.23-.3 3.74-.07 2.09-.07 4.32 0 6.7.07 1.95.13 3.11.18 3.5.15 1.36.46 2.32.91 2.88.28.3.72.49 1.33.56s1.03-.02 1.29-.28c.41-.39.66-1.2.76-2.44 0-.25.08-.44.25-.58s.37-.21.6-.19.41.1.55.26.21.35.18.57zM65.47 8.68c-.07.89-.11 2.09-.11 3.6 0 1.82-.02 3.04-.07 3.67-.02.48-.13 1.9-.33 4.27-.14 1.73-.21 3.13-.21 4.18 0 1.17.04 2.11.11 2.81.05.6.12 1.09.23 1.48l.21.53c.28.25.87.37 1.76.37.27 0 .69-.01 1.27-.04s.96-.04 1.14-.04c.22 0 .41.08.56.23s.23.34.23.55-.08.4-.23.56-.34.24-.56.24c-.16 0-.51.02-1.04.07-.57.02-1.03.04-1.37.04-1.24 0-2.17-.23-2.78-.69-.33-.27-.58-.75-.76-1.44-.12-.46-.21-1.03-.28-1.72-.05-.75-.07-1.73-.07-2.95 0-1.01.07-2.45.21-4.32l.33-4.22c.02-.6.04-1.8.04-3.62 0-1.54.05-2.77.14-3.71.02-.22.12-.4.29-.54.17-.14.36-.2.58-.18s.4.12.54.28c.13.17.19.36.17.59zM75.21 9.75c.18 2.62.2 6.01.07 10.16-.16 5.8-.25 9.16-.25 10.07 0 .22-.08.41-.24.56s-.34.23-.55.23-.4-.08-.55-.23-.24-.34-.24-.56c0-.98.08-4.35.25-10.11.13-4.1.11-7.45-.07-10.05-.02-.21.04-.4.18-.55s.33-.25.56-.27.42.04.57.18.24.33.27.57zM85.82 27.36c-.09 1.68-.49 2.85-1.18 3.52-.66.63-1.54.88-2.64.76-1.03-.12-1.82-.51-2.37-1.18-.67-.77-1.1-2.01-1.3-3.71-.05-.39-.09-1.59-.14-3.6-.07-2.47-.07-4.74 0-6.8.05-1.61.15-2.91.3-3.92.19-1.35.46-2.27.83-2.78.53-.74 1.35-1.21 2.48-1.41.98-.16 1.79-.06 2.41.3.57.3.97.83 1.2 1.58.09.33.15.7.18 1.11s.02.93 0 1.57-.04.98-.04 1.03c0 .21-.08.4-.24.55s-.35.24-.56.24-.4-.08-.55-.24-.23-.34-.23-.55c0-.25.01-.55.02-.92s.01-.67.01-.9-.01-.47-.04-.74-.06-.5-.11-.69c-.11-.33-.25-.56-.44-.69-.28-.14-.73-.16-1.34-.07-.69.13-1.18.38-1.48.76-.19.29-.36.98-.53 2.06-.13.98-.23 2.23-.3 3.74-.07 2.09-.07 4.32 0 6.7.07 1.95.13 3.11.18 3.5.15 1.36.46 2.32.91 2.88.28.3.72.49 1.33.56s1.03-.02 1.29-.28c.41-.39.66-1.2.76-2.44 0-.25.08-.44.25-.58s.37-.21.6-.19.41.1.55.26.22.35.19.57zM89.88 9.06c.36 1.09.56 2.33.58 3.71.02 1.42-.04 2.65-.18 3.71 1.17-1.36 3.04-3.94 5.61-7.73.12-.16.28-.27.5-.33s.42-.01.6.12.3.31.34.53 0 .42-.14.61l-.72 1.05-.76 1.14-.76 1.05-.79 1.11-.72 1.07c-.34.43-.63.8-.86 1.09l-.79 1-.9 1.05c.69 1.24 1.59 3.15 2.69 5.71 1.21 2.77 2.17 4.77 2.88 6.01.09.2.11.41.05.62s-.18.38-.38.48-.4.13-.62.07-.38-.19-.5-.39c-.71-1.29-1.69-3.34-2.92-6.15-.94-2.16-1.63-3.66-2.09-4.5 0 .25-.02.8-.05 1.66s-.06 1.47-.07 1.83-.02.91-.04 1.65-.02 1.35-.02 1.82.02 1 .05 1.61.08 1.18.12 1.73c.02.21-.03.4-.16.57s-.31.27-.54.29-.43-.03-.6-.16-.27-.32-.29-.56c-.09-.87-.15-1.85-.18-2.95s-.03-2.01-.02-2.72.05-1.75.11-3.11.1-2.26.12-2.7c0-.57.07-1.6.22-3.08s.2-2.7.17-3.67-.2-1.89-.49-2.76c-.07-.21-.06-.41.04-.61s.25-.33.47-.4.42-.06.62.04.35.28.42.49zM109.13 30.74c-.39-4.58-.46-10.31-.23-17.17l.16-3.27c.02-.6.04-1.07.04-1.41.02-.19.04-.33.04-.42v-.23c.02-.02.04-.05.04-.07 0-.05.01-.09.04-.14.02-.07.06-.13.11-.18.12-.18.29-.28.51-.3.5-.09.97.12 1.41.65.23.29.49.73.76 1.3.38.82.79 2.03 1.25 3.64l1.05 3.53.63-1.44c.29-.59.83-1.58 1.6-2.99.69-1.3 1.18-2.29 1.48-2.95.02-.05.05-.17.07-.37 0-.05.01-.16.04-.33s.04-.29.04-.36c.07-.35.16-.63.28-.83.29-.48.71-.64 1.27-.49.36.09.62.36.76.79.07.19.12.44.14.76.07.48.11 1.11.11 1.9 0 .12-.04 1.14-.11 3.06-.02.68-.08 1.81-.18 3.39-.07 1.58-.12 2.84-.14 3.76s-.03 2.05-.02 3.37.08 2.54.21 3.67.33 2.18.6 3.16c.05.22.01.44-.1.64s-.28.33-.49.38-.42.01-.62-.1-.32-.27-.37-.48c-.27-1.05-.48-2.18-.62-3.37s-.23-2.47-.24-3.85-.01-2.54.02-3.49.07-2.22.15-3.82.13-2.71.15-3.33c0-.02.01-.17.02-.45s.03-.59.05-.93.04-.69.04-1.03c-.27.55-.63 1.24-1.07 2.06-.77 1.41-1.28 2.39-1.51 2.95l-.81 1.62-.49 1c-.09.14-.17.26-.23.37-.05.07-.08.13-.11.18-.05.05-.09.08-.14.11-.16.14-.36.21-.58.21-.23-.02-.43-.13-.6-.32-.08-.07-.15-.16-.19-.26-.07-.09-.13-.23-.18-.42-.12-.27-.25-.69-.39-1.27l-1.05-3.57c-.39-1.27-.72-2.26-1-2.99-.05 1.04-.08 2.05-.11 3.02-.25 6.8-.18 12.45.21 16.96 0 .22-.07.42-.22.6s-.33.27-.54.28-.41-.05-.59-.19-.32-.32-.35-.54zM131.23 30.77c-.09 0-.31.02-.65.05s-.72.07-1.13.1-.81.06-1.17.08c-.75.02-1.35.01-1.79-.04-.29-.02-.55-.08-.77-.16-.33-.12-.58-.28-.76-.49-.19-.27-.34-.68-.46-1.23-.09-.46-.19-1.02-.3-1.69-.12-1.15-.2-2.61-.25-4.39-.07-2.95-.06-5.47.04-7.56.02-.53.11-1.29.26-2.3.14-1.03.22-1.74.25-2.13v-.14l-.07-.3c-.05-.4.01-.73.18-1 .23-.41.7-.7 1.41-.86.43-.12 1-.19 1.69-.21.39-.02.94-.04 1.65-.04h1.2c.21 0 .4.07.57.21s.25.32.25.54-.07.41-.22.58-.33.25-.54.25h-1.23c-.69 0-1.23.01-1.62.04-.57.02-1.04.08-1.41.18-.14.02-.26.06-.35.11v.04c.05.36.07.59.07.69-.02.53-.11 1.29-.25 2.3-.15.94-.24 1.65-.26 2.13-.02.36-.04.86-.04 1.48 1.61 0 3.07-.15 4.39-.44.19-.02.38.03.57.15s.31.29.34.49-.01.4-.12.59-.29.3-.51.35c-1.38.29-2.95.44-4.71.44-.02 1.44-.01 2.91.04 4.39.05 1.8.13 3.22.26 4.25.07.62.15 1.12.25 1.51.05.23.11.42.18.56.09.02.24.05.44.07.39.06.9.08 1.55.05.36-.04.75-.06 1.15-.09s.78-.05 1.13-.09.57-.05.67-.05c.21 0 .4.07.55.22s.24.33.25.54-.06.4-.2.55-.32.25-.53.27zM136.41 24.8c0-1.1.01-3.16.04-6.19.05-2.86.08-5.06.11-6.59 0-1.42-.01-2.93-.04-4.54.05-1.2.07-2.26.07-3.2 0-.21.08-.4.24-.55s.35-.24.56-.24.4.08.55.24.23.34.23.55v3.78c-.12 2.24-.14 3.8-.07 4.68-.02 1.18-.05 3.06-.07 5.62-.02 3.16-.04 5.31-.04 6.43 0 .22-.08.41-.24.56s-.34.23-.55.23-.4-.08-.55-.23-.24-.33-.24-.55zm1.87 4.5l-.18 1.2c-.05.21-.16.38-.33.52s-.36.18-.57.15-.38-.14-.52-.31-.19-.36-.17-.57l.18-1.2c.05-.21.16-.38.33-.52s.36-.18.58-.15.39.14.53.31.18.35.15.57zM45.88 18.88c-7.99-4.39-15.81-4.87-23.46-2.25C14.8 19.24 8.4 24.59 3.39 33.25c-.14-2.2-.26-4.23-.4-6.34-.79 1.17-1.25 6.67-.81 9.46 2.6-.85 5.07-2.02 7.29-4.09-1.82.3-3.64.6-5.56.91C9.4 25.94 15.8 21.14 23.17 18.66c7.35-2.47 14.91-2.38 22.71.22z"/></svg>