<svg version="1.1" id="Layer_1" xmlns="http://www.w3.org/2000/svg" x="0" y="0" viewBox="0 0 24 24" xml:space="preserve"><path class="st0" d="M2.93 12.69c.2 2.66 1.48 5.32 3.79 6.6 3.42 1.94 7.94 1.29 11.14-.81 1.85-1.22 3.18-2.88 3.21-5.19.02-1.11-.21-2.18-.56-3.21.04-.48-.02-.98-.21-1.48-.33-.9-.93-1.72-1.6-2.4-1.43-1.43-3.41-2.58-5.45-2.64-.55-.01-1.1.02-1.64.02-.62 0-1.24-.03-1.86.04-.98.12-1.9.55-2.72 1.06C5.34 5.76 3.88 7.4 3.28 9.33c-.07.23-.13.46-.19.7.01-.09-.16 2.66-.16 2.66zm6 6.15C7.37 18.4 6 17.51 5.21 16.07s-1.09-3.16-.99-4.79c.12-1.68.86-3.15 2.04-4.34.62-.62 1.34-1.15 2.13-1.55.88-.45 1.74-.57 2.72-.56 1.09.01 2.25-.19 3.31.1.91.24 1.79.71 2.57 1.25.49.34.96.73 1.38 1.18-.05.11-.07.23-.01.37 1.04 2.77 2.54 6.37-.04 8.75-2.4 2.22-6.22 3.25-9.39 2.36z"/><path class="st0" d="M12.88 15.76c.62-.05 1.07-.56 1.5-.98.36-.35.72-.69 1.14-.98.64-.43 1.61-1.09 1.36-1.98-.21-.77-1.27-1.15-1.9-1.49-1.07-.59-1.87-1.58-2.98-2.12-.15-.08-.27.13-.13.23.93.64 1.66 1.46 2.51 2.17.22.19.47.34.71.5.15.11.43.26.62.44-.23-.03-.46-.05-.67-.08-.88-.11-1.77-.16-2.65-.24-.88-.08-1.77-.13-2.64-.21-.84-.08-1.79-.32-2.62-.15-.45.09-.45.81 0 .91.77.15 1.63.04 2.41.07.81.02 1.61.02 2.42.02.81-.01 1.63.01 2.45.07.52.03 1.07.02 1.6.11-.04.45-1 .86-1.29 1.05-.39.27-.75.59-1.11.91-.38.33-.88.59-1.15 1.02-.18.29.06.76.42.73z"/></svg>