<svg version="1.1" id="Layer_1" xmlns="http://www.w3.org/2000/svg" x="0" y="0" viewBox="0 0 24 24" xml:space="preserve"><g id="Livello_33"><path class="st0" d="M16.54 17.7c-.09-.68-.36-1.35-.53-2.01-.71-2.76-1.25-5.57-1.8-8.37-.15-.78-.31-1.54-.43-2.32-.06-.4-.1-.8-.13-1.2-.02-.2-.03-.38-.08-.56.13-.66-.04-1.35-.64-1.86-1.13-.95-2.58-.69-3.87-.17-.68.18-1.34.54-1.87 1.02-.49.44-1 1.13-.9 1.82.03.19.08.36.17.53.08.44.23.87.36 1.28.19.67.38 1.34.58 2.01.39 1.36.75 2.73 1.16 4.09.4 1.34.77 2.7 1.19 4.05.2.62.37 1.31.69 1.88.32.56.83 1.03 1.25 1.51.53.62 1.07 1.23 1.61 1.85.24.28.49.55.73.83.22.26.4.58.66.8.12.11.32.16.46.06.44-.31.31-1.02.4-1.49.13-.67.36-1.31.58-1.97.17-.56.48-1.16.41-1.78zM7.39 3.06c.14-.19.29-.35.47-.51.08.02.18.02.27-.03 1.07-.48 2.42-1.22 3.63-.83.44.14.91.47.98.97.07.48-.15 1-.51 1.31-.46.41-1.1.59-1.67.76-.57.16-1.17.29-1.77.28-.53-.02-1.07-.15-1.44-.56-.43-.47-.3-.92.04-1.39zm3.18 13.02c-.42-1.29-.77-2.6-1.19-3.89-.42-1.31-.81-2.62-1.25-3.92-.23-.73-.5-1.46-.77-2.18-.1-.26-.2-.53-.29-.79.18.14.38.25.59.33.71.29 1.48.26 2.21.14.83-.14 1.71-.38 2.44-.8.26-.14.48-.34.68-.56.01.14.03.29.05.44.09.67.23 1.34.36 2 .26 1.31.53 2.61.8 3.9.26 1.31.55 2.61.85 3.92.05.2.1.41.14.61-.26-.38-.63-.79-1.05-.83-.59-.05-.88.61-.95 1.11-.05.36-.04.72-.01 1.08a9.55 9.55 0 00-.57-.8c-.31-.38-1-.32-1.17.18-.05.13-.13 1.13-.03 1.9-.01-.01-.02-.02-.02-.03-.44-.51-.62-1.19-.82-1.81zm5.12 2.33c-.07.19-.13.37-.2.56h-.03c-.37-.02-.77.15-1.12.26-.44.14-.88.29-1.33.38-.05.01-.08.02-.11.05-.07-.08-.14-.15-.2-.23-.28-.32-.57-.65-.86-.97-.03-.11-.08-.22-.09-.28-.02-.11-.03-.22-.04-.33-.03-.34-.04-.68.01-1.02.02-.21.02-.68.24-.74.27-.07.43.32.56.52.17.24.32.5.44.77.13.26.21.61.53.71.19.05.38-.1.38-.29-.01-.82-.35-1.92.17-2.64.3.08.57.5.71.74.24.41.47.86.48 1.34.01.29.32.38.5.24.01.02.01.03.02.05.09.3.05.55-.06.88z"/><path class="st0" d="M11.14 2.36c-.41-.22-.98-.05-1.37.11-.34.13-1.04.42-1.07.86-.08.11-.12.23-.14.38-.02.1 0 .22.11.27.65.33 1.49.05 2.11-.26.48-.22 1.06-.98.36-1.36zm-1.62 1.1c0 .02 0 .04-.01.05-.02 0-.03.01-.05.01.01-.02.02-.05.06-.06zM10.88 12.8c-.23-.59-.43-1.19-.62-1.79-.23-.7-.46-1.4-.68-2.09-.12-.39-.23-.77-.36-1.14-.05-.14-.2-.42-.17-.56.03-.12-.15-.2-.2-.09-.14.29.11.89.18 1.16.2.79.39 1.58.62 2.36.2.72.41 1.44.64 2.15l.21.6c.07.22.07.5.19.69.11.17.38.19.47 0 .19-.37-.14-.93-.28-1.29zM12.2 13.1c-.06-.16-.12-.41-.24-.58-.62-1.73-1.19-3.5-1.74-5.26-.06-.17-.33-.15-.31.04.04.43.2.86.32 1.27.13.46.26.92.41 1.37.28.92.55 1.85.83 2.77v.01c.02.06.05.11.09.14-.02-.02-.05-.03-.05-.04.01.02.02.05.04.08.04.11.08.23.12.35.05.14.13.45.11.52-.08.28.29.5.5.29.21-.26.02-.68-.08-.96z"/><path class="st0" d="M11.48 12.82c-.01-.02-.01-.01 0 0zM13.48 13.14c-.12-.3-.23-.6-.34-.9-.24-.66-.47-1.33-.7-1.99-.23-.66-.45-1.32-.66-1.98-.15-.47-.25-1.02-.62-1.38-.11-.11-.28.03-.21.17.26.5.35 1.07.5 1.61.17.62.35 1.25.53 1.88.33 1.16.68 2.31 1.06 3.46.08.36.64.28.64-.09.01-.29-.1-.53-.2-.78zM14.22 12.68c-.62-2.04-1.27-4.08-1.91-6.11-.07-.21-.39-.12-.33.09.6 2.04 1.13 4.12 1.82 6.14.09.25.5.15.42-.12z"/></g></svg>