<svg version="1.1" id="Layer_1" xmlns="http://www.w3.org/2000/svg" x="0" y="0" viewBox="0 0 24 24" xml:space="preserve"><g id="Livello_28"><path class="st0" d="M9.73 4.28c-.2-.07-.42-.07-.63-.06-.28.01-.57-.01-.85-.03-.34-.03-.68-.06-1.03-.06-.34.01-.69.03-1.02-.02-.39-.05-.83-.19-1.2-.06v-.02c-.01-.2-.3-.2-.31 0 0 .05-.01.09-.01.14-.13.11-.18.31-.01.46-.03 1.05-.01 2.12-.04 3.17-.04 1.24-.11 2.46.01 3.69.06.6.14 1.19.22 1.79.07.48.1.96.17 1.43.06.39.22.76.6.91.54.21 1.11 0 1.65.15.14.04.33-.02.4-.16.1-.19.09-.37.09-.57 0-.26.07-.53.12-.78.12-.62.21-1.26.3-1.88.17-1.23.34-2.45.71-3.64.36-1.12.84-2.2 1.11-3.34.11-.43.24-.91-.28-1.12zM20.86 6.5c-.12-.54-.36-1.03-.69-1.48-.32-.43-.71-.85-1.22-1.05-.63-.24-1.36-.23-2.02-.25-.74-.02-1.43.34-2.04.74-.07.05-.1.11-.1.18-.39.16-.75.34-1.09.59-.78.57-1.4 1.3-1.91 2.11l-.33.54c-.1.18-.26.35-.18.56.14.36.6.5.93.6.41.13.83.27 1.22.46.31.15.66.25.88-.09.11-.16.14-.32.3-.45l.49-.43c.36-.31.73-.62 1.17-.81.35-.15.85-.28 1.21-.08s.28.67.11.97c-.23.42-.62.66-.98.95-.36.28-.74.53-1.02.88-.55.69-.82 1.59-.86 2.47-.03.57-.08 1.14-.12 1.72-.02.3-.02.6.01.89.02.12.05.26.04.38-.01.11-.04.19 0 .3.14.46.81.26 1.15.21.28-.04.57-.04.85-.02.22.01.42.12.64.11.11-.01.24-.13.24-.24.01-.17-.03-.28-.08-.43-.05-.14-.07-.28-.08-.43-.04-.32-.07-.64-.03-.96.07-.57.27-1.15.53-1.66.3-.56.75-.94 1.2-1.37.43-.41.81-.88 1.12-1.39.31-.53.51-1.09.62-1.7.1-.58.17-1.23.04-1.82zM17.45 17.89c-.12-.39-.37-.76-.75-.94-.38-.19-.8-.11-1.2-.03-.16.03-.22.16-.22.27-.13.05-.24.13-.34.22-.27.24-.47.54-.58.88-.11.33-.22.73-.08 1.07.13.33.46.57.78.71.66.28 1.52.23 2.05-.28.51-.47.54-1.28.34-1.9zM8.08 17.52c-.4-.28-1.03-.38-1.52-.22-.19.04-.37.1-.56.2-.39.2-.74.52-.89.93-.33.85.21 1.75 1.01 2.08.84.35 1.94.08 2.41-.72.43-.76.29-1.75-.45-2.27z"/></g></svg>